<svg width="20" height="20" viewBox="0 0 20 20" fill="none" xmlns="http://www.w3.org/2000/svg">
<path fill-rule="evenodd" clip-rule="evenodd" d="M2.5 5.41667C2.5 3.22899 2.52342 2.5 5.41667 2.5C8.30991 2.5 8.33333 3.22899 8.33333 5.41667C8.33333 7.60434 8.34256 8.33333 5.41667 8.33333C2.49077 8.33333 2.5 7.60434 2.5 5.41667Z" fill="#21296D" stroke="#21296D" stroke-width="1.5" stroke-linecap="round" stroke-linejoin="round"/>
<path fill-rule="evenodd" clip-rule="evenodd" d="M11.6667 5.41667C11.6667 3.22899 11.6901 2.5 14.5834 2.5C17.4766 2.5 17.5 3.22899 17.5 5.41667C17.5 7.60434 17.5092 8.33333 14.5834 8.33333C11.6575 8.33333 11.6667 7.60434 11.6667 5.41667Z" fill="#21296D" stroke="#21296D" stroke-width="1.5" stroke-linecap="round" stroke-linejoin="round"/>
<path fill-rule="evenodd" clip-rule="evenodd" d="M2.5 14.5834C2.5 12.3957 2.52342 11.6667 5.41667 11.6667C8.30991 11.6667 8.33333 12.3957 8.33333 14.5834C8.33333 16.7711 8.34256 17.5001 5.41667 17.5001C2.49077 17.5001 2.5 16.7711 2.5 14.5834Z" fill="#21296D" stroke="#21296D" stroke-width="1.5" stroke-linecap="round" stroke-linejoin="round"/>
<path fill-rule="evenodd" clip-rule="evenodd" d="M11.6667 14.5834C11.6667 12.3957 11.6901 11.6667 14.5834 11.6667C17.4766 11.6667 17.5 12.3957 17.5 14.5834C17.5 16.7711 17.5092 17.5001 14.5834 17.5001C11.6575 17.5001 11.6667 16.7711 11.6667 14.5834Z" fill="#21296D" stroke="#21296D" stroke-width="1.5" stroke-linecap="round" stroke-linejoin="round"/>
</svg>
