<svg width="18" height="18" viewBox="0 0 18 18" fill="none" xmlns="http://www.w3.org/2000/svg">
<path fill-rule="evenodd" clip-rule="evenodd" d="M6.63099 16.3096V13.754C6.63098 13.1039 7.16091 12.5758 7.81749 12.5714H10.2226C10.8823 12.5714 11.4171 13.1009 11.4171 13.754V16.3175C11.4169 16.8694 11.8619 17.3205 12.4192 17.3334H14.0226C15.6209 17.3334 16.9166 16.0506 16.9166 14.4683V7.19828C16.9081 6.57577 16.6129 5.99121 16.115 5.61094L10.6314 1.23783C9.67076 0.476387 8.30515 0.476387 7.34449 1.23783L1.885 5.61888C1.3852 5.9976 1.08947 6.58314 1.08331 7.20621V14.4683C1.08331 16.0506 2.37904 17.3334 3.97741 17.3334H5.58078C6.15194 17.3334 6.61496 16.875 6.61496 16.3096" fill="#21296D"/>
<path d="M6.63099 16.3096V13.754C6.63098 13.1039 7.16091 12.5758 7.81749 12.5714H10.2226C10.8823 12.5714 11.4171 13.1009 11.4171 13.754V13.754V16.3175C11.4169 16.8694 11.8619 17.3205 12.4192 17.3334H14.0226C15.6209 17.3334 16.9166 16.0506 16.9166 14.4683V14.4683V7.19828C16.9081 6.57577 16.6129 5.99121 16.115 5.61094L10.6314 1.23783C9.67076 0.476387 8.30515 0.476387 7.34449 1.23783L1.885 5.61888C1.3852 5.9976 1.08947 6.58314 1.08331 7.20621V14.4683C1.08331 16.0506 2.37904 17.3334 3.97741 17.3334H5.58078C6.15194 17.3334 6.61496 16.875 6.61496 16.3096V16.3096" stroke="#21296D" stroke-linecap="round" stroke-linejoin="round"/>
</svg>
