<svg width="20" height="20" viewBox="0 0 20 20" fill="none" xmlns="http://www.w3.org/2000/svg">
<path d="M7.63099 17.3096V14.754C7.63098 14.1039 8.16091 13.5758 8.81749 13.5714H11.2226C11.8823 13.5714 12.4171 14.1009 12.4171 14.754V14.754V17.3175C12.4169 17.8694 12.8619 18.3205 13.4192 18.3334H15.0226C16.6209 18.3334 17.9166 17.0506 17.9166 15.4683V15.4683V8.19828C17.9081 7.57577 17.6129 6.99121 17.115 6.61094L11.6314 2.23783C10.6708 1.47639 9.30515 1.47639 8.34449 2.23783L2.885 6.61888C2.3852 6.9976 2.08947 7.58314 2.08331 8.20621V15.4683C2.08331 17.0506 3.37904 18.3334 4.97741 18.3334H6.58078C7.15194 18.3334 7.61496 17.875 7.61496 17.3096V17.3096" stroke="#52525B" stroke-linecap="round" stroke-linejoin="round"/>
</svg>
