<svg width="24" height="24" viewBox="0 0 24 24" fill="none" xmlns="http://www.w3.org/2000/svg">
<path d="M24 6.95333L18.0466 9.07486L18.401 9.78363C18.9054 10.7938 18.4193 12.0413 17.1132 12.4044C17.0967 12.4099 15.2877 12.8955 14.7383 11.2499L14.2088 9.65929L15.7156 8.15177L11.9973 2.57495L8.27889 8.15177L9.78575 9.65929L9.25622 11.2499C8.91349 12.2767 8.17795 12.6228 6.87438 12.3749C6.73204 12.3056 5.98867 12.2734 5.5681 11.3578C5.33597 10.8537 5.34558 10.2802 5.59351 9.78363L5.94722 9.07551L0 6.95262L2.6534 17.2052H8.89291L11.9973 14.1009L15.1016 17.2052H21.3425L24 6.95333Z" fill="#21296D"/>
<path d="M10.1757 17.908L11.994 16.0896L13.8124 17.908L11.994 19.7263L10.1757 17.908ZM8.89292 18.6119H2.85455V21.425H11.7061L8.89292 18.6119ZM21.14 18.6119H15.1016L12.2885 21.425H21.14V18.6119Z" fill="#21296D"/>
</svg>
