<svg width="248" height="68" viewBox="0 0 248 68" fill="none" xmlns="http://www.w3.org/2000/svg">
<path d="M0 19.2C0 12.4794 0 9.11905 1.30792 6.55211C2.4584 4.29417 4.29417 2.4584 6.55211 1.30792C9.11905 0 12.4794 0 19.2 0H228.8C235.521 0 238.881 0 241.448 1.30792C243.706 2.4584 245.542 4.29417 246.692 6.55211C248 9.11905 248 12.4794 248 19.2V48.8C248 55.5206 248 58.8809 246.692 61.4479C245.542 63.7058 243.706 65.5416 241.448 66.6921C238.881 68 235.521 68 228.8 68H19.2C12.4794 68 9.11905 68 6.55211 66.6921C4.29417 65.5416 2.4584 63.7058 1.30792 61.4479C0 58.8809 0 55.5206 0 48.8V19.2Z" fill="white"/>
<path d="M8 27.2C8 20.4794 8 17.1191 9.30792 14.5521C10.4584 12.2942 12.2942 10.4584 14.5521 9.30792C17.1191 8 20.4794 8 27.2 8H40.8C47.5206 8 50.8809 8 53.4479 9.30792C55.7058 10.4584 57.5416 12.2942 58.6921 14.5521C60 17.1191 60 20.4794 60 27.2V40.8C60 47.5206 60 50.8809 58.6921 53.4479C57.5416 55.7058 55.7058 57.5416 53.4479 58.6921C50.8809 60 47.5206 60 40.8 60H27.2C20.4794 60 17.1191 60 14.5521 58.6921C12.2942 57.5416 10.4584 55.7058 9.30792 53.4479C8 50.8809 8 47.5206 8 40.8V27.2Z" fill="#F4F4F5"/>
<path d="M30.7333 45.6951C29.3927 45.5307 28.0527 45.2652 26.7138 44.8988C25.5036 44.5675 24.6667 43.4865 24.6667 42.2547V22.0848C24.6667 20.853 25.5036 19.772 26.7138 19.4407C29.1398 18.7768 31.5692 18.4443 34 18.4443C36.4307 18.4443 38.8602 18.7768 41.2862 19.4408C42.4964 19.772 43.3333 20.853 43.3333 22.0848V42.2548C43.3333 43.4866 42.4964 44.5676 41.2862 44.8988C39.9473 45.2653 38.6073 45.5308 37.2666 45.6951V48.6404C37.2666 49.1458 36.8488 49.5554 36.3333 49.5554C35.8178 49.5554 35.4 49.1458 35.4 48.6404V45.8585C34.4673 45.9075 33.5327 45.9075 32.6 45.8585V48.6404C32.6 49.1458 32.1822 49.5554 31.6667 49.5554C31.1512 49.5554 30.7333 49.1458 30.7333 48.6404V45.6951Z" fill="#EF4444"/>
<path d="M34.9428 29.6093L35.6094 28.9426C36.1301 28.4219 36.1301 27.5777 35.6094 27.057C35.0887 26.5363 34.2444 26.5363 33.7238 27.057L33.0572 27.7237C32.5365 28.2444 32.5365 29.0886 33.0572 29.6093C33.5779 30.13 34.4221 30.13 34.9428 29.6093Z" fill="white"/>
<path d="M34 35.3331C37.6819 35.3331 40.6666 32.3483 40.6666 28.6664C40.6666 24.9845 37.6819 21.9998 34 21.9998C30.3181 21.9998 27.3333 24.9845 27.3333 28.6664C27.3333 32.3483 30.3181 35.3331 34 35.3331ZM34 32.6665C31.7909 32.6665 30 30.8756 30 28.6665C30 26.4574 31.7909 24.6665 34 24.6665C36.2091 24.6665 37.9999 26.4573 37.9999 28.6664C37.9999 30.8755 36.2091 32.6665 34 32.6665Z" fill="#FBBF24"/>
<path d="M75.688 16.8H77.352V28H75.688V22.832H70.624V28H68.96V16.8H70.624V21.168H75.688V16.8ZM82.6831 28.208C81.9471 28.208 81.2751 28.0187 80.6671 27.64C80.0645 27.2613 79.5818 26.7547 79.2191 26.12C78.8618 25.48 78.6831 24.7733 78.6831 24C78.6831 23.4133 78.7871 22.8667 78.9951 22.36C79.2031 21.848 79.4885 21.4 79.8511 21.016C80.2191 20.6267 80.6458 20.3227 81.1311 20.104C81.6165 19.8853 82.1338 19.776 82.6831 19.776C83.2965 19.776 83.8591 19.904 84.3711 20.16C84.8831 20.4107 85.3205 20.76 85.6831 21.208C86.0458 21.6507 86.3125 22.1627 86.4831 22.744C86.6538 23.32 86.7045 23.9333 86.6351 24.584H80.4671C80.5365 24.952 80.6698 25.2853 80.8671 25.584C81.0698 25.8773 81.3258 26.1093 81.6351 26.28C81.9498 26.4507 82.2991 26.5387 82.6831 26.544C83.0885 26.544 83.4565 26.4427 83.7871 26.24C84.1231 26.0373 84.3978 25.7573 84.6111 25.4L86.2991 25.792C85.9791 26.5013 85.4965 27.0827 84.8511 27.536C84.2058 27.984 83.4831 28.208 82.6831 28.208ZM80.4111 23.312H84.9551C84.9018 22.928 84.7658 22.5813 84.5471 22.272C84.3338 21.9573 84.0645 21.7093 83.7391 21.528C83.4191 21.3413 83.0671 21.248 82.6831 21.248C82.3045 21.248 81.9525 21.3387 81.6271 21.52C81.3071 21.7013 81.0405 21.9493 80.8271 22.264C80.6191 22.5733 80.4805 22.9227 80.4111 23.312ZM94.1684 20H95.8324V28H94.1604L94.0964 26.84C93.8617 27.2507 93.5444 27.5813 93.1444 27.832C92.7444 28.0827 92.2724 28.208 91.7284 28.208C91.1417 28.208 90.5897 28.0987 90.0724 27.88C89.555 27.656 89.099 27.3467 88.7044 26.952C88.315 26.5573 88.011 26.104 87.7924 25.592C87.5737 25.0747 87.4644 24.52 87.4644 23.928C87.4644 23.3573 87.571 22.8213 87.7844 22.32C87.9977 21.8133 88.2937 21.3707 88.6724 20.992C89.051 20.6133 89.4884 20.3173 89.9844 20.104C90.4857 19.8853 91.0217 19.776 91.5924 19.776C92.1737 19.776 92.6857 19.9093 93.1284 20.176C93.5764 20.4373 93.947 20.7733 94.2404 21.184L94.1684 20ZM91.6884 26.6C92.1577 26.6 92.5684 26.4853 92.9204 26.256C93.2724 26.0213 93.5444 25.7067 93.7364 25.312C93.9337 24.9173 94.0324 24.48 94.0324 24C94.0324 23.5147 93.9337 23.0747 93.7364 22.68C93.539 22.2853 93.2644 21.9733 92.9124 21.744C92.5657 21.5093 92.1577 21.392 91.6884 21.392C91.2244 21.392 90.8004 21.5093 90.4164 21.744C90.0324 21.9787 89.7284 22.2933 89.5044 22.688C89.2804 23.0827 89.1684 23.52 89.1684 24C89.1684 24.4853 89.283 24.9253 89.5124 25.32C89.747 25.7093 90.0537 26.0213 90.4324 26.256C90.8164 26.4853 91.235 26.6 91.6884 26.6ZM101.653 21.664H99.9728L99.9648 28H98.3008L98.3088 21.664H97.0368V20H98.3088L98.3008 17.488H99.9648L99.9728 20H101.653V21.664ZM102.976 20H104.64V28H102.976V20ZM103.824 18.84C103.568 18.84 103.354 18.7573 103.184 18.592C103.013 18.4267 102.928 18.2187 102.928 17.968C102.928 17.7227 103.013 17.5173 103.184 17.352C103.354 17.1813 103.565 17.096 103.816 17.096C104.061 17.096 104.269 17.1813 104.44 17.352C104.61 17.5173 104.696 17.7227 104.696 17.968C104.696 18.2187 104.61 18.4267 104.44 18.592C104.274 18.7573 104.069 18.84 103.824 18.84ZM113.691 22.984V28H112.027V23.392C112.027 23.0347 111.939 22.7093 111.763 22.416C111.593 22.1227 111.361 21.8907 111.067 21.72C110.779 21.544 110.454 21.456 110.091 21.456C109.739 21.456 109.417 21.544 109.123 21.72C108.83 21.8907 108.595 22.1227 108.419 22.416C108.243 22.7093 108.155 23.0347 108.155 23.392V28H106.491V20H108.155V20.848C108.433 20.5173 108.774 20.256 109.179 20.064C109.585 19.872 110.022 19.776 110.491 19.776C111.083 19.776 111.622 19.92 112.107 20.208C112.593 20.496 112.977 20.8827 113.259 21.368C113.547 21.8533 113.691 22.392 113.691 22.984ZM121.22 20H122.884V28.208C122.884 28.7573 122.767 29.264 122.532 29.728C122.303 30.192 121.991 30.592 121.596 30.928C121.201 31.2693 120.748 31.5333 120.236 31.72C119.729 31.9067 119.199 32 118.644 32C118.084 32 117.545 31.88 117.028 31.64C116.511 31.4053 116.055 31.0853 115.66 30.68C115.271 30.2747 114.98 29.816 114.788 29.304L116.316 28.616C116.423 28.9467 116.593 29.24 116.828 29.496C117.068 29.752 117.345 29.9547 117.66 30.104C117.98 30.2533 118.308 30.328 118.644 30.328C118.975 30.328 119.292 30.2747 119.596 30.168C119.905 30.0667 120.18 29.9227 120.42 29.736C120.665 29.5493 120.86 29.3253 121.004 29.064C121.148 28.8027 121.22 28.5173 121.22 28.208V26.856C120.959 27.2613 120.623 27.5893 120.212 27.84C119.801 28.0853 119.324 28.208 118.78 28.208C118.215 28.208 117.681 28.0987 117.18 27.88C116.679 27.6613 116.239 27.36 115.86 26.976C115.481 26.5867 115.185 26.1387 114.972 25.632C114.759 25.1253 114.652 24.5813 114.652 24C114.652 23.4187 114.759 22.8747 114.972 22.368C115.185 21.856 115.481 21.408 115.86 21.024C116.239 20.6347 116.679 20.3307 117.18 20.112C117.681 19.8933 118.215 19.784 118.78 19.784C119.324 19.784 119.801 19.9093 120.212 20.16C120.623 20.4053 120.959 20.7333 121.22 21.144V20ZM118.796 26.6C119.26 26.6 119.665 26.4827 120.012 26.248C120.359 26.008 120.628 25.6907 120.82 25.296C121.012 24.9013 121.108 24.4693 121.108 24C121.108 23.52 121.009 23.0853 120.812 22.696C120.62 22.3013 120.351 21.9867 120.004 21.752C119.657 21.512 119.255 21.392 118.796 21.392C118.348 21.392 117.937 21.5093 117.564 21.744C117.196 21.9787 116.903 22.2933 116.684 22.688C116.465 23.0827 116.356 23.52 116.356 24C116.356 24.48 116.465 24.9173 116.684 25.312C116.908 25.7067 117.204 26.0213 117.572 26.256C117.945 26.4853 118.353 26.6 118.796 26.6ZM132.64 28.208C132.026 28.208 131.437 28.112 130.872 27.92C130.306 27.728 129.813 27.4533 129.392 27.096C128.97 26.7333 128.669 26.304 128.488 25.808L130.048 25.224C130.138 25.48 130.312 25.7093 130.568 25.912C130.829 26.1093 131.138 26.264 131.496 26.376C131.858 26.488 132.24 26.544 132.64 26.544C133.066 26.544 133.466 26.4747 133.84 26.336C134.218 26.1973 134.522 26.0053 134.752 25.76C134.986 25.5147 135.104 25.2267 135.104 24.896C135.104 24.5547 134.981 24.2747 134.736 24.056C134.496 23.8373 134.186 23.664 133.808 23.536C133.434 23.408 133.045 23.312 132.64 23.248C131.856 23.12 131.152 22.9333 130.528 22.688C129.909 22.4427 129.418 22.0987 129.056 21.656C128.698 21.2133 128.52 20.6373 128.52 19.928C128.52 19.2613 128.709 18.68 129.088 18.184C129.472 17.688 129.976 17.304 130.6 17.032C131.229 16.7547 131.909 16.616 132.64 16.616C133.242 16.616 133.824 16.712 134.384 16.904C134.949 17.0907 135.445 17.3653 135.872 17.728C136.304 18.0853 136.613 18.52 136.8 19.032L135.224 19.6C135.133 19.3387 134.96 19.112 134.704 18.92C134.448 18.7227 134.138 18.568 133.776 18.456C133.418 18.344 133.04 18.288 132.64 18.288C132.213 18.2827 131.813 18.352 131.44 18.496C131.072 18.6347 130.77 18.8267 130.536 19.072C130.301 19.3173 130.184 19.6027 130.184 19.928C130.184 20.328 130.293 20.632 130.512 20.84C130.73 21.048 131.024 21.2027 131.392 21.304C131.765 21.4 132.181 21.488 132.64 21.568C133.376 21.6853 134.056 21.88 134.68 22.152C135.309 22.424 135.813 22.7867 136.192 23.24C136.576 23.688 136.768 24.24 136.768 24.896C136.768 25.5573 136.576 26.1387 136.192 26.64C135.813 27.136 135.309 27.5227 134.68 27.8C134.056 28.072 133.376 28.208 132.64 28.208ZM143.503 20H145.279L140.895 32H139.127L140.575 28L137.703 20H139.519L141.407 25.72L143.503 20ZM148.876 28.152C148.454 28.1253 148.044 28.04 147.644 27.896C147.244 27.752 146.892 27.5573 146.588 27.312C146.289 27.0613 146.065 26.768 145.916 26.432L147.332 25.824C147.401 25.968 147.521 26.1093 147.692 26.248C147.868 26.3867 148.073 26.5013 148.308 26.592C148.542 26.6773 148.788 26.72 149.044 26.72C149.294 26.72 149.526 26.6853 149.74 26.616C149.958 26.5413 150.137 26.4293 150.276 26.28C150.414 26.1307 150.484 25.952 150.484 25.744C150.484 25.5093 150.404 25.328 150.244 25.2C150.089 25.0667 149.894 24.9653 149.66 24.896C149.425 24.8267 149.19 24.76 148.956 24.696C148.433 24.5787 147.953 24.4187 147.516 24.216C147.084 24.008 146.74 23.744 146.484 23.424C146.228 23.0987 146.1 22.7013 146.1 22.232C146.1 21.72 146.238 21.2773 146.516 20.904C146.793 20.5253 147.156 20.2347 147.604 20.032C148.057 19.8293 148.54 19.728 149.052 19.728C149.692 19.728 150.278 19.864 150.812 20.136C151.345 20.408 151.753 20.7813 152.036 21.256L150.716 22.04C150.636 21.88 150.516 21.736 150.356 21.608C150.196 21.48 150.014 21.3787 149.812 21.304C149.609 21.224 149.398 21.1787 149.18 21.168C148.908 21.1573 148.654 21.1893 148.42 21.264C148.19 21.3333 148.006 21.4453 147.868 21.6C147.729 21.7547 147.66 21.952 147.66 22.192C147.66 22.4267 147.742 22.6027 147.908 22.72C148.073 22.832 148.281 22.9227 148.532 22.992C148.788 23.0613 149.049 23.1387 149.316 23.224C149.79 23.3733 150.236 23.5573 150.652 23.776C151.068 23.9893 151.404 24.2533 151.66 24.568C151.916 24.8827 152.038 25.2667 152.028 25.72C152.028 26.2213 151.876 26.6613 151.572 27.04C151.273 27.4187 150.884 27.7067 150.404 27.904C149.924 28.1013 149.414 28.184 148.876 28.152ZM157.622 21.664H155.942L155.934 28H154.27L154.278 21.664H153.006V20H154.278L154.27 17.488H155.934L155.942 20H157.622V21.664ZM162.386 28.208C161.65 28.208 160.978 28.0187 160.37 27.64C159.768 27.2613 159.285 26.7547 158.922 26.12C158.565 25.48 158.386 24.7733 158.386 24C158.386 23.4133 158.49 22.8667 158.698 22.36C158.906 21.848 159.192 21.4 159.554 21.016C159.922 20.6267 160.349 20.3227 160.834 20.104C161.32 19.8853 161.837 19.776 162.386 19.776C163 19.776 163.562 19.904 164.074 20.16C164.586 20.4107 165.024 20.76 165.386 21.208C165.749 21.6507 166.016 22.1627 166.186 22.744C166.357 23.32 166.408 23.9333 166.338 24.584H160.17C160.24 24.952 160.373 25.2853 160.57 25.584C160.773 25.8773 161.029 26.1093 161.338 26.28C161.653 26.4507 162.002 26.5387 162.386 26.544C162.792 26.544 163.16 26.4427 163.49 26.24C163.826 26.0373 164.101 25.7573 164.314 25.4L166.002 25.792C165.682 26.5013 165.2 27.0827 164.554 27.536C163.909 27.984 163.186 28.208 162.386 28.208ZM160.114 23.312H164.658C164.605 22.928 164.469 22.5813 164.25 22.272C164.037 21.9573 163.768 21.7093 163.442 21.528C163.122 21.3413 162.77 21.248 162.386 21.248C162.008 21.248 161.656 21.3387 161.33 21.52C161.01 21.7013 160.744 21.9493 160.53 22.264C160.322 22.5733 160.184 22.9227 160.114 23.312ZM167.663 28V20H169.327V20.848C169.604 20.5173 169.943 20.256 170.343 20.064C170.748 19.872 171.186 19.776 171.655 19.776C172.226 19.776 172.751 19.9147 173.231 20.192C173.711 20.464 174.092 20.8267 174.375 21.28C174.658 20.8267 175.034 20.464 175.503 20.192C175.978 19.9147 176.5 19.776 177.071 19.776C177.663 19.776 178.202 19.92 178.687 20.208C179.172 20.496 179.559 20.8827 179.847 21.368C180.135 21.8533 180.279 22.392 180.279 22.984V28H178.615V23.408C178.615 23.056 178.53 22.7333 178.359 22.44C178.188 22.1467 177.959 21.9093 177.671 21.728C177.383 21.5467 177.063 21.456 176.711 21.456C176.359 21.456 176.039 21.5413 175.751 21.712C175.463 21.8827 175.234 22.1147 175.063 22.408C174.892 22.7013 174.807 23.0347 174.807 23.408V28H173.143V23.408C173.143 23.0347 173.058 22.7013 172.887 22.408C172.716 22.1147 172.484 21.8827 172.191 21.712C171.903 21.5413 171.583 21.456 171.231 21.456C170.884 21.456 170.564 21.5467 170.271 21.728C169.983 21.9093 169.754 22.1467 169.583 22.44C169.412 22.7333 169.327 23.056 169.327 23.408V28H167.663Z" fill="#18181B"/>
<path d="M69.61 53V44.18H68.56L68.84 43.2H70.59V53H69.61ZM75.4291 53.182C74.8131 53.182 74.2484 53.0303 73.7351 52.727C73.2264 52.419 72.8181 52.0083 72.5101 51.495C72.2067 50.9817 72.0551 50.4147 72.0551 49.794C72.0551 49.4347 72.0971 49.129 72.1811 48.877C72.2651 48.6203 72.3887 48.3357 72.5521 48.023L75.3311 43.2H76.4721L74.4351 46.728C74.8457 46.5693 75.2587 46.4993 75.6741 46.518C76.0894 46.532 76.4861 46.623 76.8641 46.791C77.2421 46.959 77.5781 47.19 77.8721 47.484C78.1661 47.7733 78.3971 48.114 78.5651 48.506C78.7377 48.898 78.8241 49.3273 78.8241 49.794C78.8241 50.2607 78.7354 50.6993 78.5581 51.11C78.3807 51.516 78.1357 51.8753 77.8231 52.188C77.5151 52.496 77.1557 52.7387 76.7451 52.916C76.3344 53.0933 75.8957 53.182 75.4291 53.182ZM75.4291 52.202C75.8957 52.202 76.3111 52.09 76.6751 51.866C77.0391 51.6373 77.3237 51.3387 77.5291 50.97C77.7391 50.6013 77.8441 50.207 77.8441 49.787C77.8441 49.3483 77.7367 48.9493 77.5221 48.59C77.3074 48.226 77.0181 47.9367 76.6541 47.722C76.2901 47.5027 75.8864 47.393 75.4431 47.393C74.9857 47.393 74.5751 47.505 74.2111 47.729C73.8471 47.953 73.5601 48.247 73.3501 48.611C73.1401 48.9703 73.0351 49.3623 73.0351 49.787C73.0351 50.2443 73.1447 50.655 73.3641 51.019C73.5881 51.383 73.8821 51.6723 74.2461 51.887C74.6101 52.097 75.0044 52.202 75.4291 52.202ZM83.6553 46.98H81.9823L81.9753 53H80.9953L81.0023 46.98H79.7353V46H81.0023L80.9953 43.802H81.9753L81.9823 46H83.6553V46.98ZM91.0085 48.667V53H90.0285V48.863C90.0285 48.4803 89.9351 48.1327 89.7485 47.82C89.5618 47.5073 89.3121 47.2577 88.9995 47.071C88.6868 46.8843 88.3391 46.791 87.9565 46.791C87.5785 46.791 87.2308 46.8843 86.9135 47.071C86.6008 47.2577 86.3511 47.5073 86.1645 47.82C85.9778 48.1327 85.8845 48.4803 85.8845 48.863V53H84.9045V42.5H85.8845V46.966C86.1318 46.6113 86.4538 46.329 86.8505 46.119C87.2471 45.909 87.6788 45.804 88.1455 45.804C88.6728 45.804 89.1535 45.9323 89.5875 46.189C90.0215 46.4457 90.3668 46.791 90.6235 47.225C90.8801 47.659 91.0085 48.1397 91.0085 48.667ZM99.0566 43.2H100.275L103.845 53H102.802L102.039 50.9H97.2996L96.5366 53H95.4936L99.0566 43.2ZM97.6566 49.92H101.675L99.6656 44.404L97.6566 49.92ZM104.503 50.319V46H105.483V50.123C105.483 50.5057 105.577 50.8533 105.763 51.166C105.95 51.4787 106.2 51.7283 106.512 51.915C106.83 52.1017 107.177 52.195 107.555 52.195C107.938 52.195 108.283 52.1017 108.591 51.915C108.904 51.7283 109.154 51.4787 109.34 51.166C109.527 50.8533 109.62 50.5057 109.62 50.123V46H110.6L110.607 53H109.627L109.62 52.02C109.373 52.3747 109.051 52.657 108.654 52.867C108.262 53.077 107.833 53.182 107.366 53.182C106.839 53.182 106.358 53.0537 105.924 52.797C105.49 52.5403 105.145 52.195 104.888 51.761C104.632 51.327 104.503 50.8463 104.503 50.319ZM117.512 46H118.492V53.259C118.492 53.707 118.394 54.127 118.198 54.519C118.007 54.911 117.746 55.254 117.414 55.548C117.088 55.8467 116.714 56.08 116.294 56.248C115.874 56.416 115.438 56.5 114.985 56.5C114.5 56.5 114.031 56.388 113.578 56.164C113.126 55.9447 112.731 55.6507 112.395 55.282C112.064 54.9133 111.828 54.505 111.688 54.057L112.591 53.644C112.68 53.994 112.846 54.309 113.088 54.589C113.336 54.8737 113.625 55.0977 113.956 55.261C114.292 55.429 114.635 55.513 114.985 55.513C115.307 55.513 115.618 55.4523 115.916 55.331C116.22 55.2143 116.49 55.0533 116.728 54.848C116.971 54.6427 117.162 54.4023 117.302 54.127C117.442 53.8563 117.512 53.567 117.512 53.259V51.712C117.27 52.1507 116.941 52.5053 116.525 52.776C116.115 53.0467 115.636 53.182 115.09 53.182C114.6 53.182 114.138 53.0863 113.704 52.895C113.275 52.7037 112.897 52.44 112.57 52.104C112.244 51.7633 111.987 51.3713 111.8 50.928C111.618 50.4847 111.527 50.0087 111.527 49.5C111.527 48.9913 111.618 48.5153 111.8 48.072C111.987 47.624 112.244 47.232 112.57 46.896C112.897 46.5553 113.275 46.2893 113.704 46.098C114.138 45.9067 114.6 45.811 115.09 45.811C115.636 45.811 116.115 45.9463 116.525 46.217C116.941 46.483 117.27 46.8377 117.512 47.281V46ZM115.097 52.23C115.583 52.23 116 52.104 116.35 51.852C116.705 51.6 116.978 51.2663 117.169 50.851C117.361 50.4357 117.456 49.9853 117.456 49.5C117.456 49.0007 117.358 48.5457 117.162 48.135C116.971 47.7197 116.698 47.3883 116.343 47.141C115.989 46.889 115.573 46.763 115.097 46.763C114.621 46.763 114.187 46.8867 113.795 47.134C113.408 47.3767 113.1 47.7057 112.871 48.121C112.643 48.5363 112.528 48.996 112.528 49.5C112.528 50.004 112.645 50.4637 112.878 50.879C113.112 51.2897 113.422 51.6187 113.809 51.866C114.201 52.1087 114.631 52.23 115.097 52.23Z" fill="#52525B"/>
</svg>
