<svg width="20" height="20" viewBox="0 0 20 20" fill="none" xmlns="http://www.w3.org/2000/svg">
<path fill-rule="evenodd" clip-rule="evenodd" d="M15.8928 15.8916C13.346 18.4387 9.5748 18.989 6.48867 17.5618C6.03308 17.3783 5.65956 17.2301 5.30447 17.2301C4.3154 17.2359 3.08429 18.195 2.44446 17.5559C1.80462 16.916 2.76438 15.6839 2.76438 14.6889C2.76438 14.3337 2.622 13.9669 2.43859 13.5104C1.01068 10.4248 1.56175 6.65232 4.10854 4.10609C7.35965 0.853775 12.6417 0.853775 15.8928 4.10525C19.1498 7.36259 19.1439 12.6402 15.8928 15.8916Z" stroke="#21296D" stroke-width="1.5" stroke-linecap="round" stroke-linejoin="round"/>
<path d="M13.2828 10.3442H13.2903" stroke="#21296D" stroke-width="2" stroke-linecap="round" stroke-linejoin="round"/>
<path d="M9.942 10.3442H9.9495" stroke="#21296D" stroke-width="2" stroke-linecap="round" stroke-linejoin="round"/>
<path d="M6.60115 10.3442H6.60865" stroke="#21296D" stroke-width="2" stroke-linecap="round" stroke-linejoin="round"/>
</svg>
