<svg width="24" height="16" viewBox="0 0 24 16" fill="none" xmlns="http://www.w3.org/2000/svg">
<path d="M2.37313 9.35976V1.85976C2.37313 1.7363 2.34881 1.61406 2.30157 1.5C2.25432 1.38595 2.18508 1.28232 2.09778 1.19502C2.01049 1.10773 1.90685 1.03848 1.7928 0.991237C1.67874 0.943993 1.5565 0.919678 1.43305 0.919678C1.30959 0.919678 1.18735 0.943993 1.07329 0.991237C0.959237 1.03848 0.855603 1.10773 0.768309 1.19502C0.681014 1.28232 0.611768 1.38595 0.564525 1.5C0.517282 1.61406 0.492966 1.7363 0.492966 1.85976V14.1401C0.492966 14.2635 0.517282 14.3858 0.564525 14.4998C0.611768 14.6139 0.681014 14.7175 0.768309 14.8048C0.855603 14.8921 0.959237 14.9614 1.07329 15.0086C1.18735 15.0558 1.30959 15.0802 1.43305 15.0802C1.5565 15.0802 1.67874 15.0558 1.7928 15.0086C1.90685 14.9614 2.01049 14.8921 2.09778 14.8048C2.18508 14.7175 2.25432 14.6139 2.30157 14.4998C2.34881 14.3858 2.37313 14.2635 2.37313 14.1401V12.3785L21.6274 12.3338V14.0945C21.6274 14.2179 21.6517 14.3401 21.6989 14.4541C21.7461 14.5682 21.8154 14.6718 21.9026 14.759C21.9899 14.8463 22.0935 14.9155 22.2075 14.9628C22.3216 15.01 22.4438 15.0343 22.5672 15.0343C22.6906 15.0343 22.8128 15.01 22.9269 14.9628C23.0409 14.9155 23.1445 14.8463 23.2318 14.759C23.319 14.6718 23.3883 14.5682 23.4355 14.4541C23.4827 14.3401 23.507 14.2179 23.507 14.0945V9.31512L2.37313 9.35976Z" fill="#2933AA"/>
<path d="M23.507 8.55478H9.21744V5.0143C9.21744 4.52108 9.41334 4.04805 9.76205 3.69925C10.1108 3.35044 10.5837 3.15442 11.077 3.1543H19.752C20.7479 3.1543 21.703 3.54992 22.4072 4.25412C23.1114 4.95833 23.507 5.91344 23.507 6.90934V8.55478Z" fill="#2933AA"/>
<path d="M5.87232 8.14957C7.13975 8.14957 8.1672 7.12212 8.1672 5.85469C8.1672 4.58727 7.13975 3.55981 5.87232 3.55981C4.60489 3.55981 3.57744 4.58727 3.57744 5.85469C3.57744 7.12212 4.60489 8.14957 5.87232 8.14957Z" fill="#2933AA"/>
</svg>
