<svg width="24" height="19" viewBox="0 0 24 19" fill="none" xmlns="http://www.w3.org/2000/svg">
<path d="M6.01371 7.00012C6.25746 6.72399 6.24803 6.1137 5.98399 5.84966C5.70945 5.57507 5.26424 5.57507 4.98965 5.84966L4.64457 6.19474V3.36884C4.64457 2.68392 5.2018 2.28749 5.88673 2.28749C6.57165 2.28749 7.08621 2.68392 7.08621 3.36884C7.08621 3.75715 7.4437 4.07196 7.832 4.07196C8.22031 4.07196 8.53511 3.75715 8.53511 3.36884C8.53511 1.90853 7.832 0.720459 5.88673 0.720459C3.81055 0.720459 3 2.03981 3 3.50012V6.19474L2.89326 5.84966C2.61871 5.57507 2.1735 5.57507 1.89892 5.84966C1.63487 6.1137 1.6255 6.72394 1.8692 7.00012H6.01371ZM23.2969 7.93779H0.703111C0.314806 7.93779 0 8.2526 0 8.6409C0 9.02921 0.314806 9.34402 0.703111 9.34402H0.967622C1.33183 10.7228 1.6967 12.1014 2.06237 13.4798C2.50603 15.152 3.66565 16.4372 5.17031 17.0527L4.52035 17.854C4.27571 18.1556 4.32193 18.5984 4.62347 18.843C4.74849 18.9447 4.90478 19.0002 5.06596 19.0001C5.27057 19.0001 5.47349 18.9112 5.61242 18.7399L6.67876 17.4253C6.85923 17.4431 7.04199 17.4532 7.22728 17.4532H16.7745C16.9616 17.4532 17.1461 17.4429 17.3283 17.4248L18.3951 18.7399C18.461 18.8213 18.5443 18.8869 18.6388 18.932C18.7334 18.977 18.8368 19.0003 18.9415 19.0001C19.0972 19.0001 19.2538 18.9487 19.384 18.843C19.6856 18.5984 19.7318 18.1556 19.4872 17.854L18.8358 17.0511C20.3389 16.4348 21.497 15.1498 21.9399 13.4782C22.305 12.0998 22.6713 10.7218 23.0388 9.34406H23.2968C23.6851 9.34406 23.9999 9.02925 23.9999 8.64095C23.9999 8.25264 23.6852 7.93779 23.2969 7.93779Z" fill="#2933AA"/>
</svg>
