<svg width="24" height="18" viewBox="0 0 24 18" fill="none" xmlns="http://www.w3.org/2000/svg">
<path d="M3.49991 14L2.77807 16.3993C2.69434 16.7342 2.76814 17.0819 2.98055 17.3539C3.19295 17.626 3.51274 17.7821 3.85761 17.7821C4.36899 17.7821 4.8132 17.4353 4.93714 16.9391L5.79143 14.0114H3.79274C3.69434 14.0114 3.59641 14.0076 3.49991 14ZM20.4352 13.9886C20.3387 13.9962 20.2408 14 20.1424 14H18.1442L19.0629 16.9391C19.1228 17.18 19.2617 17.3939 19.4573 17.5466C19.653 17.6994 19.8942 17.7823 20.1424 17.7821C20.4873 17.7821 20.8071 17.626 21.0195 17.3539C21.2319 17.0819 21.3057 16.7342 21.2219 16.3993L20.4352 13.9886ZM2.20748 4.17243C3.41143 4.27225 4.42616 5.1635 4.66647 6.36414L5.24882 9.27633C5.3141 9.60275 5.60314 9.83975 5.93618 9.83975H18.0637C18.3967 9.83975 18.6858 9.60275 18.751 9.27633L19.3334 6.36414C19.5567 5.24818 20.4493 4.3995 21.5407 4.20507L21.6358 3.67335C21.7985 2.76081 21.5506 1.82982 20.9555 1.1188C20.3604 0.407782 19.4871 0 18.5599 0H5.17833C4.23031 0 3.34473 0.42292 2.74867 1.15996C2.15261 1.89746 1.92459 2.85211 2.12328 3.77884L2.20748 4.17243Z" fill="#2933AA"/>
<path d="M23.4655 6.03261C23.0922 5.63367 22.5649 5.40485 22.0185 5.40485C21.802 5.40485 21.5922 5.44071 21.395 5.50651L21.3951 5.50609C20.7308 5.7236 20.2081 6.31058 20.0756 6.99771L19.4932 9.90966C19.3573 10.5887 18.7561 11.0816 18.0636 11.0816H5.9364C5.24388 11.0816 4.64266 10.5887 4.50684 9.90966L3.92445 6.99771C3.77837 6.23073 3.14219 5.59464 2.37644 5.44506L2.37649 5.44525C1.7134 5.30456 0.995236 5.53532 0.53447 6.03261C0.161222 6.43159 -0.0320249 6.97301 0.00430652 7.51813L0.267993 11.4731C0.274947 13.101 1.5736 14.4291 3.18983 14.485L3.18964 14.4858C3.22465 14.4872 3.26013 14.4877 3.29561 14.4877H20.7044C20.7399 14.4877 20.7754 14.4872 20.8104 14.4858L20.8102 14.485C22.4264 14.4291 23.7251 13.101 23.732 11.4731L23.9957 7.51813C24.032 6.97301 23.8388 6.43154 23.4655 6.03261Z" fill="#2933AA"/>
</svg>
