<svg width="52" height="52" viewBox="0 0 52 52" fill="none" xmlns="http://www.w3.org/2000/svg">
<path d="M0 19.2C0 12.4794 0 9.11905 1.30792 6.55211C2.4584 4.29417 4.29417 2.4584 6.55211 1.30792C9.11905 0 12.4794 0 19.2 0H32.8C39.5206 0 42.8809 0 45.4479 1.30792C47.7058 2.4584 49.5416 4.29417 50.6921 6.55211C52 9.11905 52 12.4794 52 19.2V32.8C52 39.5206 52 42.8809 50.6921 45.4479C49.5416 47.7058 47.7058 49.5416 45.4479 50.6921C42.8809 52 39.5206 52 32.8 52H19.2C12.4794 52 9.11905 52 6.55211 50.6921C4.29417 49.5416 2.4584 47.7058 1.30792 45.4479C0 42.8809 0 39.5206 0 32.8V19.2Z" fill="#F4F4F5"/>
<path d="M22.7333 37.6951C21.3927 37.5307 20.0527 37.2652 18.7138 36.8988C17.5036 36.5675 16.6667 35.4865 16.6667 34.2547V14.0848C16.6667 12.853 17.5036 11.772 18.7138 11.4407C21.1398 10.7768 23.5692 10.4443 26 10.4443C28.4307 10.4443 30.8602 10.7768 33.2862 11.4408C34.4964 11.772 35.3333 12.853 35.3333 14.0848V34.2548C35.3333 35.4866 34.4964 36.5676 33.2862 36.8988C31.9473 37.2653 30.6073 37.5308 29.2666 37.6951V40.6404C29.2666 41.1458 28.8488 41.5554 28.3333 41.5554C27.8178 41.5554 27.4 41.1458 27.4 40.6404V37.8585C26.4673 37.9075 25.5327 37.9075 24.6 37.8585V40.6404C24.6 41.1458 24.1822 41.5554 23.6667 41.5554C23.1512 41.5554 22.7333 41.1458 22.7333 40.6404V37.6951Z" fill="#EF4444"/>
<path d="M26.9428 21.6093L27.6094 20.9426C28.1301 20.4219 28.1301 19.5777 27.6094 19.057C27.0887 18.5363 26.2444 18.5363 25.7238 19.057L25.0572 19.7237C24.5365 20.2444 24.5365 21.0886 25.0572 21.6093C25.5779 22.13 26.4221 22.13 26.9428 21.6093Z" fill="white"/>
<path d="M26 27.3331C29.6819 27.3331 32.6666 24.3483 32.6666 20.6664C32.6666 16.9845 29.6819 13.9998 26 13.9998C22.3181 13.9998 19.3333 16.9845 19.3333 20.6664C19.3333 24.3483 22.3181 27.3331 26 27.3331ZM26 24.6665C23.7909 24.6665 22 22.8756 22 20.6665C22 18.4574 23.7909 16.6665 26 16.6665C28.2091 16.6665 29.9999 18.4573 29.9999 20.6664C29.9999 22.8755 28.2091 24.6665 26 24.6665Z" fill="#FBBF24"/>
</svg>
